<svg viewBox="0 0 1200 675" xmlns="http://www.w3.org/2000/svg"><rect width="1200" height="675" fill="#0d1117"/><rect x="0" y="0" width="1200" height="8" fill="#8c1d40"/><text x="48" y="62" font-family="-apple-system,Segoe UI,Roboto,Arial,sans-serif" font-size="30" font-weight="700" fill="#e6edf3">AI-Accelerated Signal Integrity — Chiplet Packaging</text><text x="1152" y="40" text-anchor="end" font-family="-apple-system,Segoe UI,Roboto,Arial,sans-serif" font-size="15" fill="#8c1d40" font-weight="700" letter-spacing="1">CHE 518 · RESEARCH</text><rect x="56" y="292" width="197" height="150" rx="14" fill="#161b22" stroke="#30363d" stroke-width="1.5"/><circle cx="154" cy="322" r="15" fill="#8c1d40"/><text x="154" y="328" text-anchor="middle" font-family="Arial" font-size="15" font-weight="700" fill="#fff">1</text><text x="154.4" y="370.5" text-anchor="middle" font-family="-apple-system,Segoe UI,Roboto,Arial,sans-serif" font-size="16" fill="#e6edf3" font-weight="600"><tspan x="154.4" dy="0">2.5D / 3D chiplet</tspan><tspan x="154.4" dy="20">package</tspan></text><line x1="255" y1="368" x2="275" y2="368" stroke="#58a6ff" stroke-width="2.5"/><path d="M 275 368 l -9 -6 v 12 z" fill="#58a6ff"/><rect x="279" y="292" width="197" height="150" rx="14" fill="#161b22" stroke="#30363d" stroke-width="1.5"/><circle cx="377" cy="322" r="15" fill="#8c1d40"/><text x="377" y="328" text-anchor="middle" font-family="Arial" font-size="15" font-weight="700" fill="#fff">2</text><text x="377.20000000000005" y="370.5" text-anchor="middle" font-family="-apple-system,Segoe UI,Roboto,Arial,sans-serif" font-size="16" fill="#e6edf3" font-weight="600"><tspan x="377.20000000000005" dy="0">SI failure modes:</tspan><tspan x="377.20000000000005" dy="20">reflection, loss,</tspan><tspan x="377.20000000000005" dy="20">crosstalk</tspan></text><line x1="478" y1="368" x2="498" y2="368" stroke="#58a6ff" stroke-width="2.5"/><path d="M 498 368 l -9 -6 v 12 z" fill="#58a6ff"/><rect x="502" y="292" width="197" height="150" rx="14" fill="#161b22" stroke="#30363d" stroke-width="1.5"/><circle cx="600" cy="322" r="15" fill="#8c1d40"/><text x="600" y="328" text-anchor="middle" font-family="Arial" font-size="15" font-weight="700" fill="#fff">3</text><text x="600.0" y="370.5" text-anchor="middle" font-family="-apple-system,Segoe UI,Roboto,Arial,sans-serif" font-size="16" fill="#e6edf3" font-weight="600"><tspan x="600.0" dy="0">DOE parameter</tspan><tspan x="600.0" dy="20">exploration</tspan></text><line x1="700" y1="368" x2="720" y2="368" stroke="#58a6ff" stroke-width="2.5"/><path d="M 720 368 l -9 -6 v 12 z" fill="#58a6ff"/><rect x="724" y="292" width="197" height="150" rx="14" fill="#161b22" stroke="#30363d" stroke-width="1.5"/><circle cx="823" cy="322" r="15" fill="#8c1d40"/><text x="823" y="328" text-anchor="middle" font-family="Arial" font-size="15" font-weight="700" fill="#fff">4</text><text x="822.8000000000001" y="370.5" text-anchor="middle" font-family="-apple-system,Segoe UI,Roboto,Arial,sans-serif" font-size="16" fill="#e6edf3" font-weight="600"><tspan x="822.8000000000001" dy="0">ML surrogate model</tspan></text><line x1="923" y1="368" x2="943" y2="368" stroke="#58a6ff" stroke-width="2.5"/><path d="M 943 368 l -9 -6 v 12 z" fill="#58a6ff"/><rect x="947" y="292" width="197" height="150" rx="14" fill="#161b22" stroke="#30363d" stroke-width="1.5"/><circle cx="1046" cy="322" r="15" fill="#8c1d40"/><text x="1046" y="328" text-anchor="middle" font-family="Arial" font-size="15" font-weight="700" fill="#fff">5</text><text x="1045.6000000000001" y="370.5" text-anchor="middle" font-family="-apple-system,Segoe UI,Roboto,Arial,sans-serif" font-size="16" fill="#e6edf3" font-weight="600"><tspan x="1045.6000000000001" dy="0">Neural-accelerated SI</tspan><tspan x="1045.6000000000001" dy="20">prediction</tspan></text></svg>